PathFileType	4	(X/Y/Z)	SUBJ26_3_walk_RCNL2025.trc
DataRate	CameraRate	NumFrames	NumMarkers	Units	OrigDataRate	OrigDataStartFrame	OrigNumFrames
100	100	13	25	mm	100	237	379
Frame#	Time	R_Shoulder			L_Shoulder			C7			J_Notch			R_Elbow			L_Elbow			R_Wrist			L_Wrist			R_Asis			L_Asis			Sacral			Thoracic			Sternum			R_Thigh_Lateral			R_Knee_Lateral			R_Shank_Lateral			R_Ankle_Lateral			R_Heel			R_Toe			L_Thigh_Lateral			L_Knee_Lateral			L_Shank_Lateral			L_Ankle_Lateral			L_Heel			L_Toe		
		X1	Y1	Z1	X2	Y2	Z2	X3	Y3	Z3	X4	Y4	Z4	X5	Y5	Z5	X6	Y6	Z6	X7	Y7	Z7	X8	Y8	Z8	X9	Y9	Z9	X10	Y10	Z10	X11	Y11	Z11	X12	Y12	Z12	X13	Y13	Z13	X14	Y14	Z14	X15	Y15	Z15	X16	Y16	Z16	X17	Y17	Z17	X18	Y18	Z18	X19	Y19	Z19	X20	Y20	Z20	X21	Y21	Z21	X22	Y22	Z22	X23	Y23	Z23	X24	Y24	Z24	X25	Y25	Z25
237	2.36000000	467.780518	1317.423706	335.179901	436.207184	1324.958374	2.183449	370.483673	1381.193237	186.928284	515.707092	1285.008179	159.798843	392.823578	1002.600525	436.523102	327.246216	1009.528442	-87.659142	472.691101	762.221710	424.792023	378.001328	769.939148	-118.985832	488.187744	911.433960	306.402893	467.782166	924.590027	4.528846	274.687408	921.757996	172.987564	293.178284	1035.959351	179.353699	561.043945	1022.506592	165.315216	403.501160	573.496277	373.254974	418.588318	430.810791	323.276489	303.908600	340.975464	353.262543	128.864380	189.678452	261.253601	96.514183	229.495056	200.179688	185.968552	83.151741	229.699005	443.386017	605.813354	-22.883972	478.227905	441.495850	60.312046	469.086700	260.423767	0.443742	447.710693	58.057156	94.760689	380.730377	40.269238	141.216095	561.451599	44.935028	141.734222
238	2.37000000	479.291534	1318.547852	335.479248	450.121979	1325.774170	2.229732	383.166779	1382.433105	186.376282	528.284302	1285.821411	160.189301	402.035278	1003.633118	435.517181	344.790039	1009.881104	-89.305748	479.912033	762.612915	424.194656	400.130737	771.162842	-119.531242	499.931732	912.765137	306.109955	479.354004	925.454407	4.223580	286.287720	923.476257	172.883316	305.104065	1037.465454	178.745895	572.704590	1023.098328	166.298218	422.786591	574.209900	373.199219	444.112000	432.460205	324.171478	331.587311	340.457764	353.699860	159.578735	185.825912	261.381989	125.194542	223.652710	199.897034	221.640839	82.409721	231.084991	452.422180	606.659302	-23.167971	482.340240	441.416229	60.244827	471.976227	260.217285	0.654026	447.855774	58.089043	94.892685	380.728363	40.481907	141.222015	561.614746	44.801247	141.884827
239	2.38000000	490.739838	1319.511597	335.808960	463.942963	1326.453491	2.311151	395.771545	1383.484497	185.858154	540.790588	1286.473755	160.640228	411.136108	1004.550781	434.589325	362.517395	1010.103333	-90.920868	487.141693	762.950317	423.649612	422.516266	772.363708	-119.976841	511.769348	914.035889	305.616058	490.799866	926.146973	3.896417	297.857178	924.946655	172.975418	316.963287	1038.768921	178.167892	584.322754	1023.590698	167.181198	442.142059	574.945007	373.061829	469.552002	434.288513	324.780609	359.598633	339.587585	354.168915	191.285370	180.824677	261.888458	154.788696	216.341309	199.976791	258.590942	80.966728	232.981766	461.789948	607.344849	-23.389185	486.431915	441.279083	60.265965	474.733459	259.983002	0.968150	448.004272	58.153542	95.074059	380.723328	40.704880	141.293961	561.776917	44.665806	142.053146
240	2.39000000	502.137024	1320.300293	336.153839	477.678345	1326.978271	2.417556	408.310394	1384.340698	185.358765	553.234985	1286.946045	161.145798	420.169678	1005.353699	433.754883	380.403229	1010.184998	-92.487106	494.407822	763.225708	423.168655	445.115219	773.533569	-120.319309	523.689880	915.200256	304.960358	502.115875	926.637085	3.538209	309.405792	926.134460	173.243683	328.763550	1039.851562	177.624939	595.908386	1023.959900	167.958847	461.606384	575.701721	372.871338	494.826782	436.261597	325.096405	387.889069	338.379303	354.667023	223.948776	174.788956	262.793640	185.328247	207.683228	200.453156	296.670044	78.953430	235.401352	471.356659	607.850769	-23.513227	490.447662	441.090485	60.397141	477.279938	259.715363	1.372021	448.146057	58.246277	95.302536	380.705292	40.930141	141.428070	561.930420	44.532730	142.250198
241	2.40000000	513.494446	1320.898193	336.502655	491.331970	1327.330078	2.544268	420.793091	1384.996948	184.869644	565.623596	1287.224854	161.697601	429.171570	1006.037292	433.027496	398.419891	1010.114441	-93.987862	501.735504	763.426270	422.767807	467.892197	774.667206	-120.561653	535.675903	916.204773	304.198639	513.304993	926.898071	3.149908	320.943176	927.018127	173.660233	340.517487	1040.702637	177.124969	607.469727	1024.191040	168.634064	481.193207	576.487671	372.650330	519.858337	438.343811	325.125793	416.398041	336.874084	355.186157	257.551147	167.844772	264.101074	216.853058	197.815247	201.341415	335.753174	76.513580	238.316757	480.984192	608.161377	-23.515955	494.353546	440.862305	60.639847	479.597717	259.424835	1.837128	448.271820	58.359856	95.563896	380.675415	41.152840	141.614075	562.068848	44.406048	142.474838
242	2.41000000	524.822876	1321.291504	336.849243	504.900055	1327.492188	2.691746	433.228210	1385.450073	184.390518	577.959839	1287.304565	162.285385	438.168335	1006.593750	432.417908	416.539307	1009.880249	-95.406265	509.147598	763.536865	422.463547	490.818466	775.763489	-120.711597	547.706665	916.998718	303.395508	524.381348	926.910522	2.737908	332.479706	927.591614	174.192520	352.241150	1041.319336	176.678207	619.015259	1024.281616	169.216537	500.881348	577.310059	372.408569	544.573547	440.498291	324.885712	445.056000	335.132080	355.715271	292.090149	160.127472	265.794708	249.410614	186.890396	202.639893	375.726776	73.790962	241.655380	490.536743	608.269897	-23.389175	498.141418	440.611145	60.976513	481.711456	259.133972	2.326893	448.376251	58.485352	95.835724	380.645996	41.373177	141.835770	562.187073	44.289135	142.715927
243	2.42000000	536.131287	1321.469116	337.190979	518.375061	1327.451416	2.863377	445.622681	1385.698608	183.927490	590.245544	1287.186523	162.896484	447.178711	1007.013672	431.934479	434.735229	1009.472717	-96.726288	516.664230	763.542694	422.268433	513.866623	776.821960	-120.777016	559.761597	917.543701	302.615082	535.372375	926.666260	2.309821	344.027771	927.865234	174.807343	363.951874	1041.705688	176.296661	630.553955	1024.241089	169.722000	520.609558	578.167664	372.138062	568.901550	442.687531	324.397491	473.786560	333.222290	356.241425	327.574188	151.781250	267.837463	283.051758	175.079666	204.332794	416.487183	70.926025	245.309280	499.888428	608.182373	-23.142410	501.820648	440.356506	61.377300	483.655426	258.868164	2.803751	448.459900	58.613987	96.093452	380.629547	41.593292	142.066879	562.281738	44.184456	142.957138
244	2.43000000	547.427063	1321.422974	337.526215	531.750793	1327.198608	3.063567	457.980408	1385.742798	183.489517	602.481995	1286.877563	163.515472	456.215851	1007.287170	431.582153	452.987244	1008.887207	-97.934250	524.302368	763.431305	422.187134	537.004929	777.841034	-120.763214	571.821533	917.820007	301.912506	546.318054	926.171204	1.873863	355.600800	927.864624	175.473328	375.667755	1041.870728	175.993149	642.095154	1024.084717	170.171661	540.286743	579.045776	371.818237	592.770081	444.872681	323.684845	502.511627	331.213318	356.752533	364.015625	142.962402	270.175354	317.821625	162.574448	206.392792	457.946198	68.060410	249.150848	508.929474	607.918152	-22.800875	505.401367	440.119080	61.808353	485.450714	258.648987	3.236835	448.528534	58.738930	96.316780	380.630981	41.812511	142.273621	562.351868	44.093178	143.182434
245	2.44000000	558.717651	1321.150024	337.853668	545.021118	1326.729980	3.297189	470.302032	1385.586060	183.086243	614.671448	1286.388794	164.126617	465.291016	1007.404724	431.360352	471.283600	1008.126831	-99.018951	532.075012	763.192291	422.214417	560.197021	778.819397	-120.672852	583.870667	917.827759	301.328003	557.267517	925.447510	1.439416	367.212341	927.626709	176.161789	387.406525	1041.825684	175.779556	653.648132	1023.825256	170.590942	559.810974	579.916260	371.426147	616.104431	447.013092	322.776764	531.156860	329.167236	357.237579	401.422729	133.843933	272.741699	353.749054	149.590759	208.780731	500.029083	65.339790	253.039185	517.572144	607.507507	-22.400024	508.876862	439.919342	62.238842	487.102112	258.494171	3.606028	448.589142	58.857590	96.494972	380.649597	42.028782	142.428223	562.400818	44.015316	143.381226
246	2.45000000	570.013062	1320.654663	338.172668	558.178284	1326.048462	3.569036	482.586975	1385.234985	182.727280	626.818420	1285.732178	164.716949	474.418518	1007.358643	431.262085	489.619568	1007.203674	-99.971321	539.990906	762.816742	422.336121	583.405304	779.758881	-120.505440	595.898071	917.583923	300.884399	568.275635	924.534668	1.016667	378.876099	927.193665	176.848846	399.183746	1041.581787	175.665237	665.222961	1023.465149	171.007111	579.081909	580.740540	370.941681	638.830322	449.065887	321.710815	559.657227	327.133728	357.685577	439.789703	124.616882	275.457001	390.836639	136.371964	211.440735	542.662781	62.909557	256.823303	525.756897	606.988159	-21.977177	512.216064	439.776855	62.645172	488.600983	258.419617	3.902190	448.645111	58.974316	96.629616	380.683044	42.245880	142.521942	562.437073	43.950649	143.550964
247	2.46000000	581.326050	1319.949707	338.483215	571.217407	1325.162842	3.882421	494.834595	1384.695435	182.422302	638.929260	1284.918579	165.277725	483.618835	1007.145020	431.276276	507.989532	1006.137451	-100.784554	548.056091	762.297241	422.534500	606.593536	780.664948	-120.257145	607.898865	917.117432	300.587311	579.394592	923.483826	0.618694	390.605011	926.605286	177.518967	411.011688	1041.147827	175.655411	676.830627	1022.992859	171.446503	598.003601	581.473389	370.348480	660.878723	450.984955	320.532593	587.962341	325.143738	358.086670	479.084686	115.487480	278.228851	429.051727	123.188492	214.293091	585.760803	60.905052	260.349335	533.446472	606.403687	-21.564760	515.370728	439.710785	63.011475	489.926697	258.441437	4.124839	448.695557	59.101868	96.734276	380.727753	42.479721	142.568970	562.468872	43.898270	143.694351
248	2.47000000	592.670288	1319.053955	338.787354	584.140198	1324.085327	4.237942	507.044800	1383.970581	182.181854	651.011841	1283.955811	165.805313	492.918732	1006.763672	431.391541	526.380920	1004.952087	-101.454109	556.278809	761.629578	422.796539	629.728149	781.546143	-119.922367	619.874817	916.461670	300.427490	590.661072	922.343933	0.265627	402.410187	925.891663	178.165924	422.899231	1040.528320	175.750168	688.484619	1022.384033	171.932129	616.483337	582.066223	369.634247	682.191284	452.721375	319.290771	616.038452	323.208008	358.433838	519.237854	106.671402	280.952667	468.323059	110.334099	217.231873	629.211609	59.442516	263.470856	540.607727	605.802124	-21.190683	518.295471	439.738953	63.328117	491.055389	258.576447	4.278720	448.737671	59.260910	96.831337	380.777496	42.760567	142.602585	562.496277	43.854488	143.815186
249	2.48000000	604.057800	1317.988281	339.091125	596.952698	1322.830933	4.633120	519.219177	1383.060669	182.016647	663.076294	1282.849976	166.302032	502.348572	1006.218628	431.598114	544.774353	1003.671631	-101.977875	564.677429	760.814178	423.119965	652.778656	782.413849	-119.495308	631.833923	915.646729	300.385498	602.091125	921.151917	-0.016642	414.300323	925.069336	178.789551	434.851013	1039.726440	175.945023	700.201599	1021.607727	172.481323	634.430420	582.468384	368.792633	702.724121	454.227722	318.030884	643.867065	321.323975	358.721008	560.131348	98.384346	283.512115	508.536896	98.113106	220.129410	672.873169	58.616051	266.059570	547.208740	605.227417	-20.882822	520.972473	439.875031	63.591541	491.974091	258.836243	4.372529	448.769836	59.477695	96.947311	380.825653	43.129688	142.667267	562.513611	43.813293	143.918564
